<svg xmlns="http://www.w3.org/2000/svg" width="1440" height="900"><path d="M815,483L831,687L1038,488Z" fill="#5962a3" stroke="#5962a3" stroke-width="1.51"/><path d="M831,687L1055,698L1038,488Z" fill="#494e8c" stroke="#494e8c" stroke-width="1.51"/><path d="M815,483L577,710L831,687Z" fill="#5e67aa" stroke="#5e67aa" stroke-width="1.51"/><path d="M825,216L599,428L815,483Z" fill="#6f78c6" stroke="#6f78c6" stroke-width="1.51"/><path d="M599,428L577,710L815,483Z" fill="#6872ba" stroke="#6872ba" stroke-width="1.51"/><path d="M831,687L863,949L1055,698Z" fill="#3b3e78" stroke="#3b3e78" stroke-width="1.51"/><path d="M1038,488L825,216L815,483Z" fill="#636bb3" stroke="#636bb3" stroke-width="1.51"/><path d="M598,901L863,949L831,687Z" fill="#40447f" stroke="#40447f" stroke-width="1.51"/><path d="M1038,488L1088,207L825,216Z" fill="#5156a1" stroke="#5156a1" stroke-width="1.51"/><path d="M1345,430L1088,207L1038,488Z" fill="#494d90" stroke="#494d90" stroke-width="1.51"/><path d="M1055,698L1343,697L1038,488Z" fill="#3a3d76" stroke="#3a3d76" stroke-width="1.51"/><path d="M863,949L1093,957L1055,698Z" fill="#292a5f" stroke="#292a5f" stroke-width="1.51"/><path d="M1320,935L1343,697L1055,698Z" fill="#202052" stroke="#202052" stroke-width="1.51"/><path d="M1343,697L1345,430L1038,488Z" fill="#3c407a" stroke="#3c407a" stroke-width="1.51"/><path d="M577,710L598,901L831,687Z" fill="#4a5090" stroke="#4a5090" stroke-width="1.51"/><path d="M825,216L630,214L599,428Z" fill="#656dc1" stroke="#656dc1" stroke-width="1.51"/><path d="M810,-10L630,214L825,216Z" fill="#565ab4" stroke="#565ab4" stroke-width="1.51"/><path d="M1345,430L1291,208L1088,207Z" fill="#37397e" stroke="#37397e" stroke-width="1.51"/><path d="M577,710L352,935L598,901Z" fill="#35377a" stroke="#35377a" stroke-width="1.51"/><path d="M599,428L398,659L577,710Z" fill="#575ca8" stroke="#575ca8" stroke-width="1.51"/><path d="M339,426L398,659L599,428Z" fill="#5e64b6" stroke="#5e64b6" stroke-width="1.51"/><path d="M1093,957L1320,935L1055,698Z" fill="#1c1d4d" stroke="#1c1d4d" stroke-width="1.51"/><path d="M863,949L1104,1147L1093,957Z" fill="#312d7f" stroke="#312d7f" stroke-width="1.51"/><path d="M1093,957L1104,1147L1320,935Z" fill="#221e6b" stroke="#221e6b" stroke-width="1.51"/><path d="M598,901L826,1133L863,949Z" fill="#48469a" stroke="#48469a" stroke-width="1.51"/><path d="M1345,430L1566,232L1291,208Z" fill="#353585" stroke="#353585" stroke-width="1.51"/><path d="M1343,697L1513,477L1345,430Z" fill="#3b3c80" stroke="#3b3c80" stroke-width="1.51"/><path d="M1584,666L1513,477L1343,697Z" fill="#35337f" stroke="#35337f" stroke-width="1.51"/><path d="M826,1133L1104,1147L863,949Z" fill="#3d3798" stroke="#3d3798" stroke-width="1.51"/><path d="M1087,-23L810,-10L1088,207Z" fill="#36378f" stroke="#36378f" stroke-width="1.51"/><path d="M1088,207L810,-10L825,216Z" fill="#474a9f" stroke="#474a9f" stroke-width="1.51"/><path d="M337,224L339,426L599,428Z" fill="#5a5fb9" stroke="#5a5fb9" stroke-width="1.51"/><path d="M337,224L599,428L630,214Z" fill="#5b5fb9" stroke="#5b5fb9" stroke-width="1.51"/><path d="M1291,208L1087,-23L1088,207Z" fill="#2f307f" stroke="#2f307f" stroke-width="1.51"/><path d="M810,-10L621,-9L630,214Z" fill="#4f51b2" stroke="#4f51b2" stroke-width="1.51"/><path d="M616,-228L621,-9L810,-10Z" fill="#474998" stroke="#474998" stroke-width="1.51"/><path d="M1546,911L1584,666L1343,697Z" fill="#221f67" stroke="#221f67" stroke-width="1.51"/><path d="M398,659L352,935L577,710Z" fill="#3b3d86" stroke="#3b3d86" stroke-width="1.51"/><path d="M598,901L604,1172L826,1133Z" fill="#4e49b0" stroke="#4e49b0" stroke-width="1.51"/><path d="M150,706L352,935L398,659Z" fill="#30317f" stroke="#30317f" stroke-width="1.51"/><path d="M352,935L604,1172L598,901Z" fill="#3d3a97" stroke="#3d3a97" stroke-width="1.51"/><path d="M826,1133L868,1411L1104,1147Z" fill="#463cbd" stroke="#463cbd" stroke-width="1.51"/><path d="M621,-9L337,224L630,214Z" fill="#4b4daf" stroke="#4b4daf" stroke-width="1.51"/><path d="M1551,1143L1546,911L1320,935Z" fill="#15136f" stroke="#15136f" stroke-width="1.51"/><path d="M1320,935L1546,911L1343,697Z" fill="#12124b" stroke="#12124b" stroke-width="1.51"/><path d="M1513,477L1566,232L1345,430Z" fill="#434197" stroke="#434197" stroke-width="1.51"/><path d="M1291,208L1305,-56L1087,-23Z" fill="#1c1f71" stroke="#1c1f71" stroke-width="1.51"/><path d="M1756,467L1566,232L1513,477Z" fill="#4b46af" stroke="#4b46af" stroke-width="1.51"/><path d="M1087,-23L1055,-242L810,-10Z" fill="#323277" stroke="#323277" stroke-width="1.51"/><path d="M1551,-39L1305,-56L1291,208Z" fill="#111871" stroke="#111871" stroke-width="1.51"/><path d="M1104,1147L1350,1194L1320,935Z" fill="#1b1872" stroke="#1b1872" stroke-width="1.51"/><path d="M1071,1414L1350,1194L1104,1147Z" fill="#2b23a2" stroke="#2b23a2" stroke-width="1.51"/><path d="M151,422L150,706L339,426Z" fill="#4b4ea8" stroke="#4b4ea8" stroke-width="1.51"/><path d="M339,426L150,706L398,659Z" fill="#47499e" stroke="#47499e" stroke-width="1.51"/><path d="M337,224L151,422L339,426Z" fill="#4f52b2" stroke="#4f52b2" stroke-width="1.51"/><path d="M604,1172L868,1411L826,1133Z" fill="#584ed6" stroke="#584ed6" stroke-width="1.51"/><path d="M352,935L397,1196L604,1172Z" fill="#3c36ac" stroke="#3c36ac" stroke-width="1.51"/><path d="M159,1132L397,1196L352,935Z" fill="#2c29a2" stroke="#2c29a2" stroke-width="1.51"/><path d="M1305,-56L1055,-242L1087,-23Z" fill="#222261" stroke="#222261" stroke-width="1.51"/><path d="M601,1420L868,1411L604,1172Z" fill="#5d51e5" stroke="#5d51e5" stroke-width="1.51"/><path d="M1792,703L1756,467L1584,666Z" fill="#3f37a5" stroke="#3f37a5" stroke-width="1.51"/><path d="M1584,666L1756,467L1513,477Z" fill="#4641a4" stroke="#4641a4" stroke-width="1.51"/><path d="M621,-9L363,-51L337,224Z" fill="#393ba5" stroke="#393ba5" stroke-width="1.51"/><path d="M337,224L153,178L151,422Z" fill="#4042a9" stroke="#4042a9" stroke-width="1.51"/><path d="M616,-228L363,-51L621,-9Z" fill="#3c3d8e" stroke="#3c3d8e" stroke-width="1.51"/><path d="M1350,1194L1551,1143L1320,935Z" fill="#16137a" stroke="#16137a" stroke-width="1.51"/><path d="M1757,922L1792,703L1584,666Z" fill="#282189" stroke="#282189" stroke-width="1.51"/><path d="M1526,1402L1551,1143L1350,1194Z" fill="#1613aa" stroke="#1613aa" stroke-width="1.51"/><path d="M868,1411L1071,1414L1104,1147Z" fill="#4034be" stroke="#4034be" stroke-width="1.51"/><path d="M805,-292L616,-228L810,-10Z" fill="#444785" stroke="#444785" stroke-width="1.51"/><path d="M363,-51L153,178L337,224Z" fill="#3235a1" stroke="#3235a1" stroke-width="1.51"/><path d="M1757,922L1584,666L1546,911Z" fill="#1b166f" stroke="#1b166f" stroke-width="1.51"/><path d="M1055,-242L805,-292L810,-10Z" fill="#383872" stroke="#383872" stroke-width="1.51"/><path d="M1305,-56L1320,-236L1055,-242Z" fill="#1b194a" stroke="#1b194a" stroke-width="1.51"/><path d="M1566,232L1551,-39L1291,208Z" fill="#242485" stroke="#242485" stroke-width="1.51"/><path d="M1783,200L1551,-39L1566,232Z" fill="#2726a0" stroke="#2726a0" stroke-width="1.51"/><path d="M150,706L125,956L352,935Z" fill="#1a1d69" stroke="#1a1d69" stroke-width="1.51"/><path d="M-138,900L125,956L150,706Z" fill="#14165e" stroke="#14165e" stroke-width="1.51"/><path d="M-119,680L150,706L151,422Z" fill="#38398c" stroke="#38398c" stroke-width="1.51"/><path d="M1551,1143L1757,922L1546,911Z" fill="#161385" stroke="#161385" stroke-width="1.51"/><path d="M397,1196L601,1420L604,1172Z" fill="#4d42d9" stroke="#4d42d9" stroke-width="1.51"/><path d="M868,1411L1342,1432L1071,1414Z" fill="#362bb4" stroke="#362bb4" stroke-width="1.51"/><path d="M386,1428L601,1420L397,1196Z" fill="#463bda" stroke="#463bda" stroke-width="1.51"/><path d="M1551,-39L1320,-236L1305,-56Z" fill="#151458" stroke="#151458" stroke-width="1.51"/><path d="M1055,-242L1531,-279L805,-292Z" fill="#201e46" stroke="#201e46" stroke-width="1.51"/><path d="M1756,467L1783,200L1566,232Z" fill="#433db8" stroke="#433db8" stroke-width="1.51"/><path d="M1996,444L1783,200L1756,467Z" fill="#5348d6" stroke="#5348d6" stroke-width="1.51"/><path d="M125,956L159,1132L352,935Z" fill="#1f208a" stroke="#1f208a" stroke-width="1.51"/><path d="M1551,1143L1798,1185L1757,922Z" fill="#1613a9" stroke="#1613a9" stroke-width="1.51"/><path d="M1071,1414L1342,1432L1350,1194Z" fill="#201a9f" stroke="#201a9f" stroke-width="1.51"/><path d="M601,1420L1342,1432L868,1411Z" fill="#483cc9" stroke="#483cc9" stroke-width="1.51"/><path d="M363,-51L105,-43L153,178Z" fill="#1a2596" stroke="#1a2596" stroke-width="1.51"/><path d="M616,-228L345,-226L363,-51Z" fill="#34337d" stroke="#34337d" stroke-width="1.51"/><path d="M805,-292L345,-226L616,-228Z" fill="#3b3b74" stroke="#3b3b74" stroke-width="1.51"/><path d="M601,1420L386,1428L1342,1432Z" fill="#5a4ddf" stroke="#5a4ddf" stroke-width="1.51"/><path d="M116,1415L386,1428L397,1196Z" fill="#312cd1" stroke="#312cd1" stroke-width="1.51"/><path d="M1342,1432L1526,1402L1350,1194Z" fill="#1613a6" stroke="#1613a6" stroke-width="1.51"/><path d="M138,-237L105,-43L363,-51Z" fill="#1e217c" stroke="#1e217c" stroke-width="1.51"/><path d="M-145,432L-119,680L151,422Z" fill="#42438f" stroke="#42438f" stroke-width="1.51"/><path d="M125,956L-129,1173L159,1132Z" fill="#15188f" stroke="#15188f" stroke-width="1.51"/><path d="M-145,432L151,422L-120,224Z" fill="#414194" stroke="#414194" stroke-width="1.51"/><path d="M1551,-39L1531,-279L1320,-236Z" fill="#171357" stroke="#171357" stroke-width="1.51"/><path d="M1320,-236L1531,-279L1055,-242Z" fill="#131036" stroke="#131036" stroke-width="1.51"/><path d="M1803,-271L1531,-279L1551,-39Z" fill="#1b156d" stroke="#1b156d" stroke-width="1.51"/><path d="M1781,1380L1798,1185L1551,1143Z" fill="#1210d0" stroke="#1210d0" stroke-width="1.51"/><path d="M2016,709L1996,444L1792,703Z" fill="#453ac6" stroke="#453ac6" stroke-width="1.51"/><path d="M-120,224L151,422L153,178Z" fill="#383a9c" stroke="#383a9c" stroke-width="1.51"/><path d="M1783,200L1811,-55L1551,-39Z" fill="#101aa7" stroke="#101aa7" stroke-width="1.51"/><path d="M1792,703L1996,444L1756,467Z" fill="#5045cb" stroke="#5045cb" stroke-width="1.51"/><path d="M2016,709L1792,703L2049,905Z" fill="#2b22a8" stroke="#2b22a8" stroke-width="1.51"/><path d="M2048,12L1811,-55L1783,200Z" fill="#141cc5" stroke="#141cc5" stroke-width="1.51"/><path d="M2049,905L1792,703L1757,922Z" fill="#1c1794" stroke="#1c1794" stroke-width="1.51"/><path d="M-101,-19L-120,224L153,178Z" fill="#242787" stroke="#242787" stroke-width="1.51"/><path d="M-119,680L-138,900L150,706Z" fill="#212164" stroke="#212164" stroke-width="1.51"/><path d="M159,1132L116,1415L397,1196Z" fill="#2424c5" stroke="#2424c5" stroke-width="1.51"/><path d="M-331,911L-138,900L-119,680Z" fill="#171544" stroke="#171544" stroke-width="1.51"/><path d="M105,-43L-101,-19L153,178Z" fill="#101d8a" stroke="#101d8a" stroke-width="1.51"/><path d="M345,-226L138,-237L363,-51Z" fill="#272574" stroke="#272574" stroke-width="1.51"/><path d="M-141,-295L138,-237L345,-226Z" fill="#19175d" stroke="#19175d" stroke-width="1.51"/><path d="M-129,1173L116,1415L159,1132Z" fill="#1419b3" stroke="#1419b3" stroke-width="1.51"/><path d="M2016,709L2058,214L1996,444Z" fill="#5f53e6" stroke="#5f53e6" stroke-width="1.51"/><path d="M2011,1152L2049,905L1757,922Z" fill="#1513b6" stroke="#1513b6" stroke-width="1.51"/><path d="M1798,1185L2011,1152L1757,922Z" fill="#1411c4" stroke="#1411c4" stroke-width="1.51"/><path d="M1526,1402L1781,1380L1551,1143Z" fill="#1311cb" stroke="#1311cb" stroke-width="1.51"/><path d="M2000,1383L1781,1380L1526,1402Z" fill="#0c0ee6" stroke="#0c0ee6" stroke-width="1.51"/><path d="M138,-237L-101,-19L105,-43Z" fill="#161970" stroke="#161970" stroke-width="1.51"/><path d="M-379,412L-364,650L-145,432Z" fill="#3d3f70" stroke="#3d3f70" stroke-width="1.51"/><path d="M1996,444L2058,214L1783,200Z" fill="#483edb" stroke="#483edb" stroke-width="1.51"/><path d="M2049,905L2058,214L2016,709Z" fill="#473bc8" stroke="#473bc8" stroke-width="1.51"/><path d="M-138,900L-129,1173L125,956Z" fill="#171670" stroke="#171670" stroke-width="1.51"/><path d="M1811,-55L1803,-271L1551,-39Z" fill="#1b168a" stroke="#1b168a" stroke-width="1.51"/><path d="M2057,-252L1803,-271L1811,-55Z" fill="#201698" stroke="#201698" stroke-width="1.51"/><path d="M2000,1383L2011,1152L1798,1185Z" fill="#050bf4" stroke="#050bf4" stroke-width="1.51"/><path d="M2058,214L2048,12L1783,200Z" fill="#2e2ad0" stroke="#2e2ad0" stroke-width="1.51"/><path d="M-138,900L-313,1178L-129,1173Z" fill="#1b156e" stroke="#1b156e" stroke-width="1.51"/><path d="M-145,432L-364,650L-119,680Z" fill="#34346b" stroke="#34346b" stroke-width="1.51"/><path d="M-379,412L-145,432L-346,227Z" fill="#3b3b73" stroke="#3b3b73" stroke-width="1.51"/><path d="M-364,650L-331,911L-119,680Z" fill="#201e49" stroke="#201e49" stroke-width="1.51"/><path d="M-346,227L-145,432L-120,224Z" fill="#37367a" stroke="#37367a" stroke-width="1.51"/><path d="M116,1415L-80,1427L386,1428Z" fill="#0f1bc9" stroke="#0f1bc9" stroke-width="1.51"/><path d="M386,1428L-80,1427L1342,1432Z" fill="#5044de" stroke="#5044de" stroke-width="1.51"/><path d="M-129,1173L-80,1427L116,1415Z" fill="#1918b2" stroke="#1918b2" stroke-width="1.51"/><path d="M-352,1381L-80,1427L-129,1173Z" fill="#20169d" stroke="#20169d" stroke-width="1.51"/><path d="M-313,-51L-346,227L-120,224Z" fill="#252268" stroke="#252268" stroke-width="1.51"/><path d="M1781,1380L2000,1383L1798,1185Z" fill="#050af6" stroke="#050af6" stroke-width="1.51"/><path d="M2011,1152L2000,1383L2049,905Z" fill="#0f0fdd" stroke="#0f0fdd" stroke-width="1.51"/><path d="M1342,1432L2000,1383L1526,1402Z" fill="#1311cc" stroke="#1311cc" stroke-width="1.51"/><path d="M-331,911L-313,1178L-138,900Z" fill="#181253" stroke="#181253" stroke-width="1.51"/><path d="M-352,1381L-313,1178L-331,911Z" fill="#1f136d" stroke="#1f136d" stroke-width="1.51"/><path d="M138,-237L-141,-295L-101,-19Z" fill="#191657" stroke="#191657" stroke-width="1.51"/><path d="M-101,-19L-313,-51L-120,224Z" fill="#1a1a6d" stroke="#1a1a6d" stroke-width="1.51"/><path d="M805,-292L-141,-295L345,-226Z" fill="#292765" stroke="#292765" stroke-width="1.51"/><path d="M-141,-295L-313,-51L-101,-19Z" fill="#18154f" stroke="#18154f" stroke-width="1.51"/><path d="M-346,227L-356,-278L-379,412Z" fill="#221f5b" stroke="#221f5b" stroke-width="1.51"/><path d="M2058,214L2057,-252L2048,12Z" fill="#1119c0" stroke="#1119c0" stroke-width="1.51"/><path d="M2048,12L2057,-252L1811,-55Z" fill="#1b17ae" stroke="#1b17ae" stroke-width="1.51"/><path d="M-364,650L-352,1381L-331,911Z" fill="#171144" stroke="#171144" stroke-width="1.51"/><path d="M-313,1178L-352,1381L-129,1173Z" fill="#21158a" stroke="#21158a" stroke-width="1.51"/><path d="M-379,412L-352,1381L-364,650Z" fill="#161333" stroke="#161333" stroke-width="1.51"/><path d="M-141,-295L-356,-278L-313,-51Z" fill="#161137" stroke="#161137" stroke-width="1.51"/><path d="M-313,-51L-356,-278L-346,227Z" fill="#18144c" stroke="#18144c" stroke-width="1.51"/></svg>